<svg width="192" height="192" viewBox="0 0 192 192" fill="none" xmlns="http://www.w3.org/2000/svg">
<path d="M176 0H16C11.7565 0 7.68687 1.68571 4.68629 4.68629C1.68571 7.68687 0 11.7565 0 16V176C0 180.243 1.68571 184.313 4.68629 187.314C7.68687 190.314 11.7565 192 16 192H176C180.243 192 184.313 190.314 187.314 187.314C190.314 184.313 192 180.243 192 176V16C192 11.7565 190.314 7.68687 187.314 4.68629C184.313 1.68571 180.243 0 176 0ZM149.66 138.34C150.403 139.083 150.993 139.966 151.395 140.937C151.797 141.908 152.004 142.949 152.004 144C152.004 145.051 151.797 146.092 151.395 147.063C150.993 148.034 150.403 148.917 149.66 149.66C148.917 150.403 148.034 150.993 147.063 151.395C146.092 151.797 145.051 152.004 144 152.004C142.949 152.004 141.908 151.797 140.937 151.395C139.966 150.993 139.083 150.403 138.34 149.66L96 107.31L53.66 149.66C52.1589 151.161 50.1229 152.004 48 152.004C45.8771 152.004 43.8411 151.161 42.34 149.66C40.8389 148.159 39.9956 146.123 39.9956 144C39.9956 141.877 40.8389 139.841 42.34 138.34L84.69 96L42.34 53.66C40.8389 52.1589 39.9956 50.1229 39.9956 48C39.9956 45.8771 40.8389 43.8411 42.34 42.34C43.8411 40.8389 45.8771 39.9956 48 39.9956C50.1229 39.9956 52.1589 40.8389 53.66 42.34L96 84.69L138.34 42.34C139.841 40.8389 141.877 39.9956 144 39.9956C146.123 39.9956 148.159 40.8389 149.66 42.34C151.161 43.8411 152.004 45.8771 152.004 48C152.004 50.1229 151.161 52.1589 149.66 53.66L107.31 96L149.66 138.34Z" fill="#FF9A62"/>
</svg>
